<svg width="128" height="128" viewBox="0 0 128 128" fill="none" xmlns="http://www.w3.org/2000/svg">
<rect width="128" height="128" fill="url(#paint0_linear_129_72)"/>
<path d="M92.795 49.2175C92.536 48.4087 92.0429 47.695 91.378 47.1667C90.7131 46.6385 89.9064 46.3194 89.06 46.25L80.3525 45.5L76.9575 37.6025C76.6241 36.8296 76.0716 36.1712 75.3684 35.7087C74.6651 35.2461 73.8418 34.9996 73 34.9996C72.1582 34.9996 71.3349 35.2461 70.6316 35.7087C69.9283 36.1712 69.3759 36.8296 69.0425 37.6025L65.65 45.5175L56.94 46.25C56.0956 46.317 55.2901 46.6329 54.6253 47.1578C53.9605 47.6826 53.4663 48.3928 53.2051 49.1986C52.9439 50.0043 52.9275 50.8694 53.158 51.6844C53.3885 52.4995 53.8555 53.2279 54.5 53.7775L61.075 59.3925L59.1075 67.7325C58.9186 68.5536 58.9751 69.4121 59.2699 70.2013C59.5647 70.9906 60.0849 71.6758 60.7659 72.172C61.4469 72.6681 62.2586 72.9533 63.1002 72.992C63.9418 73.0308 64.7763 72.8214 65.5 72.39L73 67.935L80.5 72.39C81.2236 72.8235 82.0587 73.0345 82.9013 72.9967C83.7439 72.9588 84.5568 72.6739 85.2386 72.1773C85.9204 71.6807 86.4411 70.9945 86.7356 70.2041C87.0301 69.4138 87.0856 68.5542 86.895 67.7325L84.9275 59.3925L91.5 53.7775C92.1424 53.2306 92.6084 52.5055 92.8389 51.6938C93.0694 50.8822 93.0541 50.0205 92.795 49.2175ZM80.2275 55.5C79.6254 56.0105 79.1768 56.6781 78.9318 57.4285C78.6868 58.1789 78.655 58.9826 78.84 59.75L80.125 65.1975L75.205 62.275C74.5382 61.8774 73.7763 61.6674 73 61.6674C72.2237 61.6674 71.4618 61.8774 70.795 62.275L65.875 65.19L67.16 59.75C67.3464 58.9826 67.3153 58.1785 67.0702 57.4278C66.8252 56.6771 66.3758 56.0096 65.7725 55.5L61.5225 51.8775L67.1575 51.4025C67.9338 51.3392 68.6783 51.0659 69.3111 50.6119C69.944 50.1578 70.4414 49.5401 70.75 48.825L73 43.5975L75.25 48.8225C75.5573 49.5402 76.0543 50.1605 76.6877 50.6169C77.3211 51.0732 78.067 51.3483 78.845 51.4125L84.48 51.8875L80.2275 55.5ZM40.1225 78.1225C39.5589 78.6861 38.7945 79.0027 37.9975 79.0027C37.2005 79.0027 36.4361 78.6861 35.8725 78.1225C35.3089 77.5589 34.9923 76.7945 34.9923 75.9975C34.9923 75.2005 35.3089 74.4361 35.8725 73.8725L48.8725 60.8725C49.4361 60.3089 50.2005 59.9923 50.9975 59.9923C51.7945 59.9923 52.5589 60.3089 53.1225 60.8725C53.6861 61.4361 54.0027 62.2005 54.0027 62.9975C54.0027 63.7945 53.6861 64.5589 53.1225 65.1225L40.1225 78.1225ZM57.1225 79.1225L44.1225 92.1225C43.5589 92.6861 42.7945 93.0027 41.9975 93.0027C41.2005 93.0027 40.4361 92.6861 39.8725 92.1225C39.3089 91.5589 38.9923 90.7945 38.9923 89.9975C38.9923 89.2005 39.3089 88.4361 39.8725 87.8725L52.8725 74.8725C53.4361 74.3089 54.2005 73.9923 54.9975 73.9923C55.7945 73.9923 56.5589 74.3089 57.1225 74.8725C57.6861 75.4361 58.0027 76.2005 58.0027 76.9975C58.0027 77.7945 57.6861 78.5589 57.1225 79.1225ZM75.1225 74.8725C75.4022 75.1512 75.6241 75.4824 75.7755 75.847C75.9269 76.2117 76.0049 76.6027 76.0049 76.9975C76.0049 77.3923 75.9269 77.7833 75.7755 78.148C75.6241 78.5126 75.4022 78.8438 75.1225 79.1225L62.1225 92.1225C61.5589 92.6861 60.7945 93.0027 59.9975 93.0027C59.2005 93.0027 58.4361 92.6861 57.8725 92.1225C57.3089 91.5589 56.9923 90.7945 56.9923 89.9975C56.9923 89.2005 57.3089 88.4361 57.8725 87.8725L70.8725 74.8725C71.1515 74.5932 71.483 74.3716 71.8478 74.2206C72.2126 74.0697 72.6037 73.9922 72.9985 73.9926C73.3934 73.9931 73.7842 74.0715 74.1487 74.2233C74.5132 74.3752 74.8441 74.5975 75.1225 74.8775V74.8725Z" fill="#F9F9F9"/>
<defs>
<linearGradient id="paint0_linear_129_72" x1="0" y1="0" x2="128" y2="128" gradientUnits="userSpaceOnUse">
<stop stop-color="#FCDF47"/>
<stop offset="0.525095" stop-color="#14B7A5"/>
<stop offset="1" stop-color="#8A5CF5"/>
</linearGradient>
</defs>
</svg>
