<svg width="284" height="93" viewBox="0 0 284 93" fill="none" xmlns="http://www.w3.org/2000/svg">
<rect x="197.235" y="47" width="18.019" height="44.6667" rx="3" fill="url(#paint0_linear_15_652)" stroke="#F9F9F9" stroke-width="2"/>
<rect x="177.879" y="47" width="17.3515" height="42" rx="3" fill="url(#paint1_linear_15_652)" stroke="#F9F9F9" stroke-width="2"/>
<rect x="157.855" y="47" width="18.019" height="36.6667" rx="3" fill="url(#paint2_linear_15_652)" stroke="#F9F9F9" stroke-width="2"/>
<rect x="138.499" y="47" width="17.3515" height="28.6667" rx="3" fill="url(#paint3_linear_15_652)" stroke="#F9F9F9" stroke-width="2"/>
<rect x="119.81" y="47" width="17.3515" height="31.3333" rx="3" fill="url(#paint4_linear_15_652)" stroke="#F9F9F9" stroke-width="2"/>
<rect x="255.971" y="47" width="18.019" height="23.3333" rx="3" fill="url(#paint5_linear_15_652)" stroke="#F9F9F9" stroke-width="2"/>
<rect x="236.615" y="47" width="18.019" height="31.3333" rx="3" fill="url(#paint6_linear_15_652)" stroke="#F9F9F9" stroke-width="2"/>
<rect x="217.259" y="47" width="17.3515" height="36.6667" rx="3" fill="url(#paint7_linear_15_652)" stroke="#F9F9F9" stroke-width="2"/>
<rect x="21.0261" y="47" width="18.019" height="38" rx="3" fill="url(#paint8_linear_15_652)" stroke="#F9F9F9" stroke-width="2"/>
<rect x="1.66983" y="47" width="18.019" height="44.6667" rx="3" fill="url(#paint9_linear_15_652)" stroke="#F9F9F9" stroke-width="2"/>
<rect x="99.7862" y="47" width="18.019" height="38" rx="3" fill="url(#paint10_linear_15_652)" stroke="#F9F9F9" stroke-width="2"/>
<rect x="80.4299" y="47" width="17.3515" height="31.3333" rx="3" fill="url(#paint11_linear_15_652)" stroke="#F9F9F9" stroke-width="2"/>
<rect x="60.4062" y="47" width="18.019" height="26" rx="3" fill="url(#paint12_linear_15_652)" stroke="#F9F9F9" stroke-width="2"/>
<rect x="41.0499" y="47" width="17.3515" height="31.3333" rx="3" fill="url(#paint13_linear_15_652)" stroke="#F9F9F9" stroke-width="2"/>
<mask id="path-15-outside-1_15_652" maskUnits="userSpaceOnUse" x="0.776642" y="15.3387" width="283" height="42" fill="black">
<rect fill="white" x="0.776642" y="15.3387" width="283" height="42"/>
<path d="M13.8832 47.8453C12.1175 47.8453 10.48 47.8169 8.97066 47.76C7.46131 47.7031 5.39664 47.5751 2.77664 47.376V17.9787H17.4714C19.5503 17.9787 21.4156 18.2773 23.0674 18.8747C24.7476 19.4435 26.0576 20.2684 26.9974 21.3493C27.9372 22.4302 28.407 23.6818 28.407 25.104C28.407 26.8675 28.0226 28.2613 27.2537 29.2853C26.4848 30.2809 25.3172 30.9778 23.7509 31.376C27.7378 32.0018 29.7313 34.3484 29.7313 38.416C29.7313 41.232 28.4355 43.5075 25.844 45.2427C23.281 46.9778 19.294 47.8453 13.8832 47.8453ZM15.6773 29.584C16.7879 29.584 17.6992 29.3138 18.4112 28.7733C19.1516 28.2329 19.5218 27.536 19.5218 26.6827C19.5218 24.6631 18.2688 23.6533 15.7627 23.6533H12.3026V29.584H15.6773ZM15.5064 41.1467C17.0727 41.1467 18.2688 40.8622 19.0947 40.2933C19.949 39.696 20.3762 38.8711 20.3762 37.8187C20.3762 36.6809 19.9917 35.8133 19.2228 35.216C18.4539 34.5902 17.3575 34.2773 15.9336 34.2773H12.2599V41.0187C13.5414 41.104 14.6236 41.1467 15.5064 41.1467Z"/>
<path d="M42.3629 47.6747C40.5119 47.6747 38.7747 47.1911 37.1514 46.224C35.5566 45.2284 34.2751 43.8915 33.3069 42.2133C32.3386 40.5067 31.8545 38.6151 31.8545 36.5387C31.8545 34.4907 32.3386 32.6418 33.3069 30.992C34.2751 29.3138 35.5709 28.0053 37.1941 27.0667C38.8174 26.128 40.5403 25.6587 42.3629 25.6587C43.8438 25.6587 45.2108 26.0711 46.4638 26.896C47.7453 27.7209 48.7136 28.9582 49.3686 30.608V25.6587H58.3392V47.3333H49.3686V43.3653C47.9447 46.2382 45.6095 47.6747 42.3629 47.6747ZM45.1396 40.9333C46.2787 40.9333 47.247 40.5351 48.0443 39.7387C48.8702 38.9138 49.3116 37.9467 49.3686 36.8373V36.496C49.3116 35.3582 48.856 34.3911 48.0016 33.5947C47.1758 32.7982 46.2217 32.4 45.1396 32.4C43.9435 32.4 42.9183 32.8267 42.0639 33.68C41.238 34.5049 40.8251 35.5004 40.8251 36.6667C40.8251 37.8613 41.2523 38.8711 42.1066 39.696C42.961 40.5209 43.972 40.9333 45.1396 40.9333Z"/>
<path d="M62.666 26.256H71.2522V30.608C72.9039 27.3084 75.5239 25.6587 79.1122 25.6587C81.8461 25.6587 83.982 26.64 85.5198 28.6027C87.0861 30.5369 87.8693 33.2249 87.8693 36.6667V47.3333H78.8986V35.7707C78.8986 34.5475 78.6281 33.6089 78.087 32.9547C77.5744 32.3004 76.8482 31.9733 75.9084 31.9733C75.2249 31.9733 74.5557 32.2009 73.9007 32.656C73.2457 33.0827 72.7046 33.7084 72.2774 34.5333C71.8787 35.3582 71.6794 36.2969 71.6794 37.3493V47.3333H62.666V26.256Z"/>
<path d="M101.348 47.6747C99.4111 47.6747 97.6454 47.1627 96.0506 46.1387C94.4843 45.1147 93.2455 43.7635 92.3342 42.0853C91.4229 40.3787 90.9673 38.5724 90.9673 36.6667C90.9673 34.6471 91.4372 32.7982 92.3769 31.12C93.3452 29.4133 94.6267 28.0764 96.2215 27.1093C97.8448 26.1422 99.5677 25.6587 101.39 25.6587C103.042 25.6587 104.437 26 105.577 26.6827C106.744 27.3653 107.684 28.4604 108.396 29.968V19.216L117.409 17.8933V47.3333H108.396V43.3653C107.057 46.2382 104.708 47.6747 101.348 47.6747ZM104.167 40.9333C105.363 40.9333 106.36 40.5067 107.157 39.6533C107.983 38.8 108.396 37.8044 108.396 36.6667V36.496C108.396 35.3867 107.969 34.4338 107.114 33.6373C106.26 32.8124 105.278 32.4 104.167 32.4C102.971 32.4 101.96 32.8267 101.134 33.68C100.337 34.5049 99.9379 35.5004 99.9379 36.6667C99.9379 37.8613 100.351 38.8711 101.177 39.696C102.031 40.5209 103.028 40.9333 104.167 40.9333Z"/>
<path d="M131.517 48.016C127.502 48.016 124.113 47.2764 121.351 45.7973L123.487 39.184C126.42 40.2364 129.04 40.7627 131.347 40.7627C132.6 40.7627 133.511 40.6204 134.08 40.336C134.678 40.0231 134.977 39.568 134.977 38.9707C134.977 38.5724 134.821 38.2311 134.508 37.9467C134.194 37.6338 133.568 37.2924 132.628 36.9227C131.688 36.5529 130.279 36.0978 128.399 35.5573C126.092 34.8747 124.298 33.7653 123.017 32.2293C121.735 30.6649 121.094 28.8729 121.094 26.8533C121.094 23.7244 122.12 21.3635 124.17 19.7707C126.249 18.1493 129.04 17.3387 132.543 17.3387C134.365 17.3387 136.159 17.5378 137.925 17.936C139.691 18.3058 141.257 18.8604 142.624 19.6L140.317 26.0427C138.722 25.5022 137.327 25.1182 136.131 24.8907C134.963 24.6347 133.824 24.5067 132.713 24.5067C130.834 24.5067 129.894 25.0187 129.894 26.0427C129.894 26.5547 130.193 26.9955 130.791 27.3653C131.418 27.7067 132.685 28.1475 134.593 28.688C137.583 29.4844 139.847 30.7075 141.385 32.3573C142.923 33.9787 143.692 35.9271 143.692 38.2027C143.692 41.36 142.667 43.792 140.616 45.4987C138.566 47.1769 135.533 48.016 131.517 48.016Z"/>
<path d="M147.058 26.256H156.071V29.968C157.438 27.0951 159.759 25.6587 163.034 25.6587C164.942 25.6587 166.694 26.1422 168.288 27.1093C169.912 28.048 171.179 29.3564 172.09 31.0347C173.03 32.7129 173.5 34.5902 173.5 36.6667C173.5 38.7431 173.016 40.6204 172.047 42.2987C171.108 43.9769 169.826 45.2995 168.203 46.2667C166.608 47.2053 164.899 47.6747 163.077 47.6747C159.83 47.6747 157.495 46.2382 156.071 43.3653V52.88L147.058 54.5867V26.256ZM160.343 40.9333C161.511 40.9333 162.507 40.5067 163.333 39.6533C164.159 38.8 164.572 37.8044 164.572 36.6667C164.572 35.472 164.145 34.4622 163.29 33.6373C162.465 32.8124 161.482 32.4 160.343 32.4C159.175 32.4 158.179 32.8124 157.353 33.6373C156.527 34.4338 156.114 35.3867 156.114 36.496V36.6667C156.114 37.8613 156.527 38.8711 157.353 39.696C158.207 40.5209 159.204 40.9333 160.343 40.9333Z"/>
<path d="M187.994 47.6747C185.602 47.6747 183.466 47.2053 181.587 46.2667C179.736 45.328 178.283 44.0338 177.23 42.384C176.204 40.7058 175.692 38.7858 175.692 36.624C175.692 34.4622 176.219 32.5564 177.272 30.9067C178.326 29.2284 179.778 27.9342 181.629 27.024C183.509 26.1138 185.645 25.6587 188.037 25.6587C190.458 25.6587 192.594 26.128 194.445 27.0667C196.324 27.9769 197.777 29.2569 198.802 30.9067C199.827 32.5564 200.34 34.4622 200.34 36.624C200.34 38.8142 199.813 40.7484 198.759 42.4267C197.734 44.0764 196.282 45.3707 194.402 46.3093C192.551 47.2195 190.415 47.6747 187.994 47.6747ZM188.08 41.2747C189.247 41.2747 190.201 40.848 190.942 39.9947C191.711 39.1129 192.095 37.9893 192.095 36.624C192.095 35.2587 191.711 34.1493 190.942 33.296C190.201 32.4142 189.247 31.9733 188.08 31.9733C186.912 31.9733 185.944 32.4142 185.175 33.296C184.435 34.1493 184.064 35.2587 184.064 36.624C184.064 37.9893 184.435 39.1129 185.175 39.9947C185.944 40.848 186.912 41.2747 188.08 41.2747Z"/>
<path d="M212.73 47.6747C210.224 47.6747 208.273 46.9635 206.877 45.5413C205.482 44.0907 204.784 42.0995 204.784 39.568V31.248H202.05V25.9573H205.425L209.398 17.8933H213.712V25.9573H218.667V31.248H213.712V38.5013C213.712 39.2124 213.94 39.7671 214.396 40.1653C214.851 40.5635 215.492 40.7627 216.318 40.7627C217.087 40.7627 217.785 40.592 218.411 40.2507L218.753 46.224C218.041 46.6507 217.115 47.0062 215.976 47.2907C214.866 47.5467 213.783 47.6747 212.73 47.6747Z"/>
<path d="M231.293 47.6747C228.787 47.6747 226.837 46.9635 225.441 45.5413C224.046 44.0907 223.348 42.0995 223.348 39.568V31.248H220.614V25.9573H223.989L227.961 17.8933H232.276V25.9573H237.231V31.248H232.276V38.5013C232.276 39.2124 232.504 39.7671 232.959 40.1653C233.415 40.5635 234.056 40.7627 234.882 40.7627C235.651 40.7627 236.348 40.592 236.975 40.2507L237.317 46.224C236.605 46.6507 235.679 47.0062 234.54 47.2907C233.429 47.5467 232.347 47.6747 231.293 47.6747Z"/>
<path d="M251.149 47.6747C248.785 47.6747 246.678 47.2053 244.826 46.2667C243.004 45.2995 241.58 43.9911 240.555 42.3413C239.529 40.6631 239.017 38.7715 239.017 36.6667C239.017 34.5049 239.544 32.5849 240.597 30.9067C241.651 29.2284 243.075 27.9342 244.869 27.024C246.663 26.1138 248.657 25.6587 250.85 25.6587C252.957 25.6587 254.751 26.128 256.232 27.0667C257.741 27.9769 258.866 29.2284 259.607 30.8213C260.347 32.3858 260.717 34.1493 260.717 36.112C260.717 36.624 260.689 36.9938 260.632 37.2213L247.817 38.8853C248.158 39.8809 248.714 40.6062 249.483 41.0613C250.252 41.488 251.263 41.7013 252.516 41.7013C254.452 41.7013 256.545 41.2035 258.795 40.208L259.863 45.9253C257.214 47.0915 254.31 47.6747 251.149 47.6747ZM254.096 33.5093C253.64 31.7173 252.558 30.8213 250.85 30.8213C249.824 30.8213 249.013 31.2053 248.415 31.9733C247.817 32.7413 247.503 33.7369 247.475 34.96L254.096 33.5093Z"/>
<path d="M263.821 26.256H272.835V30.608C273.49 28.9298 274.372 27.6924 275.483 26.896C276.622 26.0711 277.947 25.6587 279.456 25.6587L280.695 32.6133C277.989 32.6133 275.996 32.912 274.714 33.5093C273.461 34.0782 272.835 34.9884 272.835 36.24V47.3333H263.821V26.256Z"/>
</mask>
<path d="M13.8832 47.8453C12.1175 47.8453 10.48 47.8169 8.97066 47.76C7.46131 47.7031 5.39664 47.5751 2.77664 47.376V17.9787H17.4714C19.5503 17.9787 21.4156 18.2773 23.0674 18.8747C24.7476 19.4435 26.0576 20.2684 26.9974 21.3493C27.9372 22.4302 28.407 23.6818 28.407 25.104C28.407 26.8675 28.0226 28.2613 27.2537 29.2853C26.4848 30.2809 25.3172 30.9778 23.7509 31.376C27.7378 32.0018 29.7313 34.3484 29.7313 38.416C29.7313 41.232 28.4355 43.5075 25.844 45.2427C23.281 46.9778 19.294 47.8453 13.8832 47.8453ZM15.6773 29.584C16.7879 29.584 17.6992 29.3138 18.4112 28.7733C19.1516 28.2329 19.5218 27.536 19.5218 26.6827C19.5218 24.6631 18.2688 23.6533 15.7627 23.6533H12.3026V29.584H15.6773ZM15.5064 41.1467C17.0727 41.1467 18.2688 40.8622 19.0947 40.2933C19.949 39.696 20.3762 38.8711 20.3762 37.8187C20.3762 36.6809 19.9917 35.8133 19.2228 35.216C18.4539 34.5902 17.3575 34.2773 15.9336 34.2773H12.2599V41.0187C13.5414 41.104 14.6236 41.1467 15.5064 41.1467Z" fill="url(#paint14_linear_15_652)"/>
<path d="M42.3629 47.6747C40.5119 47.6747 38.7747 47.1911 37.1514 46.224C35.5566 45.2284 34.2751 43.8915 33.3069 42.2133C32.3386 40.5067 31.8545 38.6151 31.8545 36.5387C31.8545 34.4907 32.3386 32.6418 33.3069 30.992C34.2751 29.3138 35.5709 28.0053 37.1941 27.0667C38.8174 26.128 40.5403 25.6587 42.3629 25.6587C43.8438 25.6587 45.2108 26.0711 46.4638 26.896C47.7453 27.7209 48.7136 28.9582 49.3686 30.608V25.6587H58.3392V47.3333H49.3686V43.3653C47.9447 46.2382 45.6095 47.6747 42.3629 47.6747ZM45.1396 40.9333C46.2787 40.9333 47.247 40.5351 48.0443 39.7387C48.8702 38.9138 49.3116 37.9467 49.3686 36.8373V36.496C49.3116 35.3582 48.856 34.3911 48.0016 33.5947C47.1758 32.7982 46.2217 32.4 45.1396 32.4C43.9435 32.4 42.9183 32.8267 42.0639 33.68C41.238 34.5049 40.8251 35.5004 40.8251 36.6667C40.8251 37.8613 41.2523 38.8711 42.1066 39.696C42.961 40.5209 43.972 40.9333 45.1396 40.9333Z" fill="url(#paint15_linear_15_652)"/>
<path d="M62.666 26.256H71.2522V30.608C72.9039 27.3084 75.5239 25.6587 79.1122 25.6587C81.8461 25.6587 83.982 26.64 85.5198 28.6027C87.0861 30.5369 87.8693 33.2249 87.8693 36.6667V47.3333H78.8986V35.7707C78.8986 34.5475 78.6281 33.6089 78.087 32.9547C77.5744 32.3004 76.8482 31.9733 75.9084 31.9733C75.2249 31.9733 74.5557 32.2009 73.9007 32.656C73.2457 33.0827 72.7046 33.7084 72.2774 34.5333C71.8787 35.3582 71.6794 36.2969 71.6794 37.3493V47.3333H62.666V26.256Z" fill="url(#paint16_linear_15_652)"/>
<path d="M101.348 47.6747C99.4111 47.6747 97.6454 47.1627 96.0506 46.1387C94.4843 45.1147 93.2455 43.7635 92.3342 42.0853C91.4229 40.3787 90.9673 38.5724 90.9673 36.6667C90.9673 34.6471 91.4372 32.7982 92.3769 31.12C93.3452 29.4133 94.6267 28.0764 96.2215 27.1093C97.8448 26.1422 99.5677 25.6587 101.39 25.6587C103.042 25.6587 104.437 26 105.577 26.6827C106.744 27.3653 107.684 28.4604 108.396 29.968V19.216L117.409 17.8933V47.3333H108.396V43.3653C107.057 46.2382 104.708 47.6747 101.348 47.6747ZM104.167 40.9333C105.363 40.9333 106.36 40.5067 107.157 39.6533C107.983 38.8 108.396 37.8044 108.396 36.6667V36.496C108.396 35.3867 107.969 34.4338 107.114 33.6373C106.26 32.8124 105.278 32.4 104.167 32.4C102.971 32.4 101.96 32.8267 101.134 33.68C100.337 34.5049 99.9379 35.5004 99.9379 36.6667C99.9379 37.8613 100.351 38.8711 101.177 39.696C102.031 40.5209 103.028 40.9333 104.167 40.9333Z" fill="url(#paint17_linear_15_652)"/>
<path d="M131.517 48.016C127.502 48.016 124.113 47.2764 121.351 45.7973L123.487 39.184C126.42 40.2364 129.04 40.7627 131.347 40.7627C132.6 40.7627 133.511 40.6204 134.08 40.336C134.678 40.0231 134.977 39.568 134.977 38.9707C134.977 38.5724 134.821 38.2311 134.508 37.9467C134.194 37.6338 133.568 37.2924 132.628 36.9227C131.688 36.5529 130.279 36.0978 128.399 35.5573C126.092 34.8747 124.298 33.7653 123.017 32.2293C121.735 30.6649 121.094 28.8729 121.094 26.8533C121.094 23.7244 122.12 21.3635 124.17 19.7707C126.249 18.1493 129.04 17.3387 132.543 17.3387C134.365 17.3387 136.159 17.5378 137.925 17.936C139.691 18.3058 141.257 18.8604 142.624 19.6L140.317 26.0427C138.722 25.5022 137.327 25.1182 136.131 24.8907C134.963 24.6347 133.824 24.5067 132.713 24.5067C130.834 24.5067 129.894 25.0187 129.894 26.0427C129.894 26.5547 130.193 26.9955 130.791 27.3653C131.418 27.7067 132.685 28.1475 134.593 28.688C137.583 29.4844 139.847 30.7075 141.385 32.3573C142.923 33.9787 143.692 35.9271 143.692 38.2027C143.692 41.36 142.667 43.792 140.616 45.4987C138.566 47.1769 135.533 48.016 131.517 48.016Z" fill="url(#paint18_linear_15_652)"/>
<path d="M147.058 26.256H156.071V29.968C157.438 27.0951 159.759 25.6587 163.034 25.6587C164.942 25.6587 166.694 26.1422 168.288 27.1093C169.912 28.048 171.179 29.3564 172.09 31.0347C173.03 32.7129 173.5 34.5902 173.5 36.6667C173.5 38.7431 173.016 40.6204 172.047 42.2987C171.108 43.9769 169.826 45.2995 168.203 46.2667C166.608 47.2053 164.899 47.6747 163.077 47.6747C159.83 47.6747 157.495 46.2382 156.071 43.3653V52.88L147.058 54.5867V26.256ZM160.343 40.9333C161.511 40.9333 162.507 40.5067 163.333 39.6533C164.159 38.8 164.572 37.8044 164.572 36.6667C164.572 35.472 164.145 34.4622 163.29 33.6373C162.465 32.8124 161.482 32.4 160.343 32.4C159.175 32.4 158.179 32.8124 157.353 33.6373C156.527 34.4338 156.114 35.3867 156.114 36.496V36.6667C156.114 37.8613 156.527 38.8711 157.353 39.696C158.207 40.5209 159.204 40.9333 160.343 40.9333Z" fill="url(#paint19_linear_15_652)"/>
<path d="M187.994 47.6747C185.602 47.6747 183.466 47.2053 181.587 46.2667C179.736 45.328 178.283 44.0338 177.23 42.384C176.204 40.7058 175.692 38.7858 175.692 36.624C175.692 34.4622 176.219 32.5564 177.272 30.9067C178.326 29.2284 179.778 27.9342 181.629 27.024C183.509 26.1138 185.645 25.6587 188.037 25.6587C190.458 25.6587 192.594 26.128 194.445 27.0667C196.324 27.9769 197.777 29.2569 198.802 30.9067C199.827 32.5564 200.34 34.4622 200.34 36.624C200.34 38.8142 199.813 40.7484 198.759 42.4267C197.734 44.0764 196.282 45.3707 194.402 46.3093C192.551 47.2195 190.415 47.6747 187.994 47.6747ZM188.08 41.2747C189.247 41.2747 190.201 40.848 190.942 39.9947C191.711 39.1129 192.095 37.9893 192.095 36.624C192.095 35.2587 191.711 34.1493 190.942 33.296C190.201 32.4142 189.247 31.9733 188.08 31.9733C186.912 31.9733 185.944 32.4142 185.175 33.296C184.435 34.1493 184.064 35.2587 184.064 36.624C184.064 37.9893 184.435 39.1129 185.175 39.9947C185.944 40.848 186.912 41.2747 188.08 41.2747Z" fill="url(#paint20_linear_15_652)"/>
<path d="M212.73 47.6747C210.224 47.6747 208.273 46.9635 206.877 45.5413C205.482 44.0907 204.784 42.0995 204.784 39.568V31.248H202.05V25.9573H205.425L209.398 17.8933H213.712V25.9573H218.667V31.248H213.712V38.5013C213.712 39.2124 213.94 39.7671 214.396 40.1653C214.851 40.5635 215.492 40.7627 216.318 40.7627C217.087 40.7627 217.785 40.592 218.411 40.2507L218.753 46.224C218.041 46.6507 217.115 47.0062 215.976 47.2907C214.866 47.5467 213.783 47.6747 212.73 47.6747Z" fill="url(#paint21_linear_15_652)"/>
<path d="M231.293 47.6747C228.787 47.6747 226.837 46.9635 225.441 45.5413C224.046 44.0907 223.348 42.0995 223.348 39.568V31.248H220.614V25.9573H223.989L227.961 17.8933H232.276V25.9573H237.231V31.248H232.276V38.5013C232.276 39.2124 232.504 39.7671 232.959 40.1653C233.415 40.5635 234.056 40.7627 234.882 40.7627C235.651 40.7627 236.348 40.592 236.975 40.2507L237.317 46.224C236.605 46.6507 235.679 47.0062 234.54 47.2907C233.429 47.5467 232.347 47.6747 231.293 47.6747Z" fill="url(#paint22_linear_15_652)"/>
<path d="M251.149 47.6747C248.785 47.6747 246.678 47.2053 244.826 46.2667C243.004 45.2995 241.58 43.9911 240.555 42.3413C239.529 40.6631 239.017 38.7715 239.017 36.6667C239.017 34.5049 239.544 32.5849 240.597 30.9067C241.651 29.2284 243.075 27.9342 244.869 27.024C246.663 26.1138 248.657 25.6587 250.85 25.6587C252.957 25.6587 254.751 26.128 256.232 27.0667C257.741 27.9769 258.866 29.2284 259.607 30.8213C260.347 32.3858 260.717 34.1493 260.717 36.112C260.717 36.624 260.689 36.9938 260.632 37.2213L247.817 38.8853C248.158 39.8809 248.714 40.6062 249.483 41.0613C250.252 41.488 251.263 41.7013 252.516 41.7013C254.452 41.7013 256.545 41.2035 258.795 40.208L259.863 45.9253C257.214 47.0915 254.31 47.6747 251.149 47.6747ZM254.096 33.5093C253.64 31.7173 252.558 30.8213 250.85 30.8213C249.824 30.8213 249.013 31.2053 248.415 31.9733C247.817 32.7413 247.503 33.7369 247.475 34.96L254.096 33.5093Z" fill="url(#paint23_linear_15_652)"/>
<path d="M263.821 26.256H272.835V30.608C273.49 28.9298 274.372 27.6924 275.483 26.896C276.622 26.0711 277.947 25.6587 279.456 25.6587L280.695 32.6133C277.989 32.6133 275.996 32.912 274.714 33.5093C273.461 34.0782 272.835 34.9884 272.835 36.24V47.3333H263.821V26.256Z" fill="url(#paint24_linear_15_652)"/>
<path d="M13.8832 47.8453C12.1175 47.8453 10.48 47.8169 8.97066 47.76C7.46131 47.7031 5.39664 47.5751 2.77664 47.376V17.9787H17.4714C19.5503 17.9787 21.4156 18.2773 23.0674 18.8747C24.7476 19.4435 26.0576 20.2684 26.9974 21.3493C27.9372 22.4302 28.407 23.6818 28.407 25.104C28.407 26.8675 28.0226 28.2613 27.2537 29.2853C26.4848 30.2809 25.3172 30.9778 23.7509 31.376C27.7378 32.0018 29.7313 34.3484 29.7313 38.416C29.7313 41.232 28.4355 43.5075 25.844 45.2427C23.281 46.9778 19.294 47.8453 13.8832 47.8453ZM15.6773 29.584C16.7879 29.584 17.6992 29.3138 18.4112 28.7733C19.1516 28.2329 19.5218 27.536 19.5218 26.6827C19.5218 24.6631 18.2688 23.6533 15.7627 23.6533H12.3026V29.584H15.6773ZM15.5064 41.1467C17.0727 41.1467 18.2688 40.8622 19.0947 40.2933C19.949 39.696 20.3762 38.8711 20.3762 37.8187C20.3762 36.6809 19.9917 35.8133 19.2228 35.216C18.4539 34.5902 17.3575 34.2773 15.9336 34.2773H12.2599V41.0187C13.5414 41.104 14.6236 41.1467 15.5064 41.1467Z" stroke="#F9F9F9" stroke-width="4" mask="url(#path-15-outside-1_15_652)"/>
<path d="M42.3629 47.6747C40.5119 47.6747 38.7747 47.1911 37.1514 46.224C35.5566 45.2284 34.2751 43.8915 33.3069 42.2133C32.3386 40.5067 31.8545 38.6151 31.8545 36.5387C31.8545 34.4907 32.3386 32.6418 33.3069 30.992C34.2751 29.3138 35.5709 28.0053 37.1941 27.0667C38.8174 26.128 40.5403 25.6587 42.3629 25.6587C43.8438 25.6587 45.2108 26.0711 46.4638 26.896C47.7453 27.7209 48.7136 28.9582 49.3686 30.608V25.6587H58.3392V47.3333H49.3686V43.3653C47.9447 46.2382 45.6095 47.6747 42.3629 47.6747ZM45.1396 40.9333C46.2787 40.9333 47.247 40.5351 48.0443 39.7387C48.8702 38.9138 49.3116 37.9467 49.3686 36.8373V36.496C49.3116 35.3582 48.856 34.3911 48.0016 33.5947C47.1758 32.7982 46.2217 32.4 45.1396 32.4C43.9435 32.4 42.9183 32.8267 42.0639 33.68C41.238 34.5049 40.8251 35.5004 40.8251 36.6667C40.8251 37.8613 41.2523 38.8711 42.1066 39.696C42.961 40.5209 43.972 40.9333 45.1396 40.9333Z" stroke="#F9F9F9" stroke-width="4" mask="url(#path-15-outside-1_15_652)"/>
<path d="M62.666 26.256H71.2522V30.608C72.9039 27.3084 75.5239 25.6587 79.1122 25.6587C81.8461 25.6587 83.982 26.64 85.5198 28.6027C87.0861 30.5369 87.8693 33.2249 87.8693 36.6667V47.3333H78.8986V35.7707C78.8986 34.5475 78.6281 33.6089 78.087 32.9547C77.5744 32.3004 76.8482 31.9733 75.9084 31.9733C75.2249 31.9733 74.5557 32.2009 73.9007 32.656C73.2457 33.0827 72.7046 33.7084 72.2774 34.5333C71.8787 35.3582 71.6794 36.2969 71.6794 37.3493V47.3333H62.666V26.256Z" stroke="#F9F9F9" stroke-width="4" mask="url(#path-15-outside-1_15_652)"/>
<path d="M101.348 47.6747C99.4111 47.6747 97.6454 47.1627 96.0506 46.1387C94.4843 45.1147 93.2455 43.7635 92.3342 42.0853C91.4229 40.3787 90.9673 38.5724 90.9673 36.6667C90.9673 34.6471 91.4372 32.7982 92.3769 31.12C93.3452 29.4133 94.6267 28.0764 96.2215 27.1093C97.8448 26.1422 99.5677 25.6587 101.39 25.6587C103.042 25.6587 104.437 26 105.577 26.6827C106.744 27.3653 107.684 28.4604 108.396 29.968V19.216L117.409 17.8933V47.3333H108.396V43.3653C107.057 46.2382 104.708 47.6747 101.348 47.6747ZM104.167 40.9333C105.363 40.9333 106.36 40.5067 107.157 39.6533C107.983 38.8 108.396 37.8044 108.396 36.6667V36.496C108.396 35.3867 107.969 34.4338 107.114 33.6373C106.26 32.8124 105.278 32.4 104.167 32.4C102.971 32.4 101.96 32.8267 101.134 33.68C100.337 34.5049 99.9379 35.5004 99.9379 36.6667C99.9379 37.8613 100.351 38.8711 101.177 39.696C102.031 40.5209 103.028 40.9333 104.167 40.9333Z" stroke="#F9F9F9" stroke-width="4" mask="url(#path-15-outside-1_15_652)"/>
<path d="M131.517 48.016C127.502 48.016 124.113 47.2764 121.351 45.7973L123.487 39.184C126.42 40.2364 129.04 40.7627 131.347 40.7627C132.6 40.7627 133.511 40.6204 134.08 40.336C134.678 40.0231 134.977 39.568 134.977 38.9707C134.977 38.5724 134.821 38.2311 134.508 37.9467C134.194 37.6338 133.568 37.2924 132.628 36.9227C131.688 36.5529 130.279 36.0978 128.399 35.5573C126.092 34.8747 124.298 33.7653 123.017 32.2293C121.735 30.6649 121.094 28.8729 121.094 26.8533C121.094 23.7244 122.12 21.3635 124.17 19.7707C126.249 18.1493 129.04 17.3387 132.543 17.3387C134.365 17.3387 136.159 17.5378 137.925 17.936C139.691 18.3058 141.257 18.8604 142.624 19.6L140.317 26.0427C138.722 25.5022 137.327 25.1182 136.131 24.8907C134.963 24.6347 133.824 24.5067 132.713 24.5067C130.834 24.5067 129.894 25.0187 129.894 26.0427C129.894 26.5547 130.193 26.9955 130.791 27.3653C131.418 27.7067 132.685 28.1475 134.593 28.688C137.583 29.4844 139.847 30.7075 141.385 32.3573C142.923 33.9787 143.692 35.9271 143.692 38.2027C143.692 41.36 142.667 43.792 140.616 45.4987C138.566 47.1769 135.533 48.016 131.517 48.016Z" stroke="#F9F9F9" stroke-width="4" mask="url(#path-15-outside-1_15_652)"/>
<path d="M147.058 26.256H156.071V29.968C157.438 27.0951 159.759 25.6587 163.034 25.6587C164.942 25.6587 166.694 26.1422 168.288 27.1093C169.912 28.048 171.179 29.3564 172.09 31.0347C173.03 32.7129 173.5 34.5902 173.5 36.6667C173.5 38.7431 173.016 40.6204 172.047 42.2987C171.108 43.9769 169.826 45.2995 168.203 46.2667C166.608 47.2053 164.899 47.6747 163.077 47.6747C159.83 47.6747 157.495 46.2382 156.071 43.3653V52.88L147.058 54.5867V26.256ZM160.343 40.9333C161.511 40.9333 162.507 40.5067 163.333 39.6533C164.159 38.8 164.572 37.8044 164.572 36.6667C164.572 35.472 164.145 34.4622 163.29 33.6373C162.465 32.8124 161.482 32.4 160.343 32.4C159.175 32.4 158.179 32.8124 157.353 33.6373C156.527 34.4338 156.114 35.3867 156.114 36.496V36.6667C156.114 37.8613 156.527 38.8711 157.353 39.696C158.207 40.5209 159.204 40.9333 160.343 40.9333Z" stroke="#F9F9F9" stroke-width="4" mask="url(#path-15-outside-1_15_652)"/>
<path d="M187.994 47.6747C185.602 47.6747 183.466 47.2053 181.587 46.2667C179.736 45.328 178.283 44.0338 177.23 42.384C176.204 40.7058 175.692 38.7858 175.692 36.624C175.692 34.4622 176.219 32.5564 177.272 30.9067C178.326 29.2284 179.778 27.9342 181.629 27.024C183.509 26.1138 185.645 25.6587 188.037 25.6587C190.458 25.6587 192.594 26.128 194.445 27.0667C196.324 27.9769 197.777 29.2569 198.802 30.9067C199.827 32.5564 200.34 34.4622 200.34 36.624C200.34 38.8142 199.813 40.7484 198.759 42.4267C197.734 44.0764 196.282 45.3707 194.402 46.3093C192.551 47.2195 190.415 47.6747 187.994 47.6747ZM188.08 41.2747C189.247 41.2747 190.201 40.848 190.942 39.9947C191.711 39.1129 192.095 37.9893 192.095 36.624C192.095 35.2587 191.711 34.1493 190.942 33.296C190.201 32.4142 189.247 31.9733 188.08 31.9733C186.912 31.9733 185.944 32.4142 185.175 33.296C184.435 34.1493 184.064 35.2587 184.064 36.624C184.064 37.9893 184.435 39.1129 185.175 39.9947C185.944 40.848 186.912 41.2747 188.08 41.2747Z" stroke="#F9F9F9" stroke-width="4" mask="url(#path-15-outside-1_15_652)"/>
<path d="M212.73 47.6747C210.224 47.6747 208.273 46.9635 206.877 45.5413C205.482 44.0907 204.784 42.0995 204.784 39.568V31.248H202.05V25.9573H205.425L209.398 17.8933H213.712V25.9573H218.667V31.248H213.712V38.5013C213.712 39.2124 213.94 39.7671 214.396 40.1653C214.851 40.5635 215.492 40.7627 216.318 40.7627C217.087 40.7627 217.785 40.592 218.411 40.2507L218.753 46.224C218.041 46.6507 217.115 47.0062 215.976 47.2907C214.866 47.5467 213.783 47.6747 212.73 47.6747Z" stroke="#F9F9F9" stroke-width="4" mask="url(#path-15-outside-1_15_652)"/>
<path d="M231.293 47.6747C228.787 47.6747 226.837 46.9635 225.441 45.5413C224.046 44.0907 223.348 42.0995 223.348 39.568V31.248H220.614V25.9573H223.989L227.961 17.8933H232.276V25.9573H237.231V31.248H232.276V38.5013C232.276 39.2124 232.504 39.7671 232.959 40.1653C233.415 40.5635 234.056 40.7627 234.882 40.7627C235.651 40.7627 236.348 40.592 236.975 40.2507L237.317 46.224C236.605 46.6507 235.679 47.0062 234.54 47.2907C233.429 47.5467 232.347 47.6747 231.293 47.6747Z" stroke="#F9F9F9" stroke-width="4" mask="url(#path-15-outside-1_15_652)"/>
<path d="M251.149 47.6747C248.785 47.6747 246.678 47.2053 244.826 46.2667C243.004 45.2995 241.58 43.9911 240.555 42.3413C239.529 40.6631 239.017 38.7715 239.017 36.6667C239.017 34.5049 239.544 32.5849 240.597 30.9067C241.651 29.2284 243.075 27.9342 244.869 27.024C246.663 26.1138 248.657 25.6587 250.85 25.6587C252.957 25.6587 254.751 26.128 256.232 27.0667C257.741 27.9769 258.866 29.2284 259.607 30.8213C260.347 32.3858 260.717 34.1493 260.717 36.112C260.717 36.624 260.689 36.9938 260.632 37.2213L247.817 38.8853C248.158 39.8809 248.714 40.6062 249.483 41.0613C250.252 41.488 251.263 41.7013 252.516 41.7013C254.452 41.7013 256.545 41.2035 258.795 40.208L259.863 45.9253C257.214 47.0915 254.31 47.6747 251.149 47.6747ZM254.096 33.5093C253.64 31.7173 252.558 30.8213 250.85 30.8213C249.824 30.8213 249.013 31.2053 248.415 31.9733C247.817 32.7413 247.503 33.7369 247.475 34.96L254.096 33.5093Z" stroke="#F9F9F9" stroke-width="4" mask="url(#path-15-outside-1_15_652)"/>
<path d="M263.821 26.256H272.835V30.608C273.49 28.9298 274.372 27.6924 275.483 26.896C276.622 26.0711 277.947 25.6587 279.456 25.6587L280.695 32.6133C277.989 32.6133 275.996 32.912 274.714 33.5093C273.461 34.0782 272.835 34.9884 272.835 36.24V47.3333H263.821V26.256Z" stroke="#F9F9F9" stroke-width="4" mask="url(#path-15-outside-1_15_652)"/>
<defs>
<linearGradient id="paint0_linear_15_652" x1="198.235" y1="48" x2="226.315" y2="58.5425" gradientUnits="userSpaceOnUse">
<stop stop-color="#FCDF47"/>
<stop offset="0.525095" stop-color="#14B7A5"/>
<stop offset="1" stop-color="#8A5CF5"/>
</linearGradient>
<linearGradient id="paint1_linear_15_652" x1="178.879" y1="48" x2="205.64" y2="58.2707" gradientUnits="userSpaceOnUse">
<stop stop-color="#FCDF47"/>
<stop offset="0.525095" stop-color="#14B7A5"/>
<stop offset="1" stop-color="#8A5CF5"/>
</linearGradient>
<linearGradient id="paint2_linear_15_652" x1="158.855" y1="48" x2="185.256" y2="60.1995" gradientUnits="userSpaceOnUse">
<stop stop-color="#FCDF47"/>
<stop offset="0.525095" stop-color="#14B7A5"/>
<stop offset="1" stop-color="#8A5CF5"/>
</linearGradient>
<linearGradient id="paint3_linear_15_652" x1="139.499" y1="48" x2="162.559" y2="61.2756" gradientUnits="userSpaceOnUse">
<stop stop-color="#FCDF47"/>
<stop offset="0.525095" stop-color="#14B7A5"/>
<stop offset="1" stop-color="#8A5CF5"/>
</linearGradient>
<linearGradient id="paint4_linear_15_652" x1="120.81" y1="48" x2="144.912" y2="60.6136" gradientUnits="userSpaceOnUse">
<stop stop-color="#FCDF47"/>
<stop offset="0.525095" stop-color="#14B7A5"/>
<stop offset="1" stop-color="#8A5CF5"/>
</linearGradient>
<linearGradient id="paint5_linear_15_652" x1="256.971" y1="48" x2="277.458" y2="63.3834" gradientUnits="userSpaceOnUse">
<stop stop-color="#FCDF47"/>
<stop offset="0.525095" stop-color="#14B7A5"/>
<stop offset="1" stop-color="#8A5CF5"/>
</linearGradient>
<linearGradient id="paint6_linear_15_652" x1="237.615" y1="48" x2="262.293" y2="61.4768" gradientUnits="userSpaceOnUse">
<stop stop-color="#FCDF47"/>
<stop offset="0.525095" stop-color="#14B7A5"/>
<stop offset="1" stop-color="#8A5CF5"/>
</linearGradient>
<linearGradient id="paint7_linear_15_652" x1="218.259" y1="48" x2="243.928" y2="59.3672" gradientUnits="userSpaceOnUse">
<stop stop-color="#FCDF47"/>
<stop offset="0.525095" stop-color="#14B7A5"/>
<stop offset="1" stop-color="#8A5CF5"/>
</linearGradient>
<linearGradient id="paint8_linear_15_652" x1="22.0261" y1="48" x2="48.769" y2="59.8999" gradientUnits="userSpaceOnUse">
<stop stop-color="#FCDF47"/>
<stop offset="0.525095" stop-color="#14B7A5"/>
<stop offset="1" stop-color="#8A5CF5"/>
</linearGradient>
<linearGradient id="paint9_linear_15_652" x1="2.66983" y1="48" x2="30.7497" y2="58.5425" gradientUnits="userSpaceOnUse">
<stop stop-color="#FCDF47"/>
<stop offset="0.525095" stop-color="#14B7A5"/>
<stop offset="1" stop-color="#8A5CF5"/>
</linearGradient>
<linearGradient id="paint10_linear_15_652" x1="100.786" y1="48" x2="127.529" y2="59.8999" gradientUnits="userSpaceOnUse">
<stop stop-color="#FCDF47"/>
<stop offset="0.525095" stop-color="#14B7A5"/>
<stop offset="1" stop-color="#8A5CF5"/>
</linearGradient>
<linearGradient id="paint11_linear_15_652" x1="81.4299" y1="48" x2="105.532" y2="60.6136" gradientUnits="userSpaceOnUse">
<stop stop-color="#FCDF47"/>
<stop offset="0.525095" stop-color="#14B7A5"/>
<stop offset="1" stop-color="#8A5CF5"/>
</linearGradient>
<linearGradient id="paint12_linear_15_652" x1="61.4062" y1="48" x2="83.5701" y2="62.7935" gradientUnits="userSpaceOnUse">
<stop stop-color="#FCDF47"/>
<stop offset="0.525095" stop-color="#14B7A5"/>
<stop offset="1" stop-color="#8A5CF5"/>
</linearGradient>
<linearGradient id="paint13_linear_15_652" x1="42.0499" y1="48" x2="66.1517" y2="60.6136" gradientUnits="userSpaceOnUse">
<stop stop-color="#FCDF47"/>
<stop offset="0.525095" stop-color="#14B7A5"/>
<stop offset="1" stop-color="#8A5CF5"/>
</linearGradient>
<linearGradient id="paint14_linear_15_652" x1="2.77664" y1="17.3387" x2="12.5848" y2="90.5201" gradientUnits="userSpaceOnUse">
<stop stop-color="#FCDF47"/>
<stop offset="0.525095" stop-color="#14B7A5"/>
<stop offset="1" stop-color="#8A5CF5"/>
</linearGradient>
<linearGradient id="paint15_linear_15_652" x1="2.77664" y1="17.3387" x2="12.5848" y2="90.5201" gradientUnits="userSpaceOnUse">
<stop stop-color="#FCDF47"/>
<stop offset="0.525095" stop-color="#14B7A5"/>
<stop offset="1" stop-color="#8A5CF5"/>
</linearGradient>
<linearGradient id="paint16_linear_15_652" x1="2.77664" y1="17.3387" x2="12.5848" y2="90.5201" gradientUnits="userSpaceOnUse">
<stop stop-color="#FCDF47"/>
<stop offset="0.525095" stop-color="#14B7A5"/>
<stop offset="1" stop-color="#8A5CF5"/>
</linearGradient>
<linearGradient id="paint17_linear_15_652" x1="2.77664" y1="17.3387" x2="12.5848" y2="90.5201" gradientUnits="userSpaceOnUse">
<stop stop-color="#FCDF47"/>
<stop offset="0.525095" stop-color="#14B7A5"/>
<stop offset="1" stop-color="#8A5CF5"/>
</linearGradient>
<linearGradient id="paint18_linear_15_652" x1="2.77664" y1="17.3387" x2="12.5848" y2="90.5201" gradientUnits="userSpaceOnUse">
<stop stop-color="#FCDF47"/>
<stop offset="0.525095" stop-color="#14B7A5"/>
<stop offset="1" stop-color="#8A5CF5"/>
</linearGradient>
<linearGradient id="paint19_linear_15_652" x1="2.77664" y1="17.3387" x2="12.5848" y2="90.5201" gradientUnits="userSpaceOnUse">
<stop stop-color="#FCDF47"/>
<stop offset="0.525095" stop-color="#14B7A5"/>
<stop offset="1" stop-color="#8A5CF5"/>
</linearGradient>
<linearGradient id="paint20_linear_15_652" x1="2.77664" y1="17.3387" x2="12.5848" y2="90.5201" gradientUnits="userSpaceOnUse">
<stop stop-color="#FCDF47"/>
<stop offset="0.525095" stop-color="#14B7A5"/>
<stop offset="1" stop-color="#8A5CF5"/>
</linearGradient>
<linearGradient id="paint21_linear_15_652" x1="2.77664" y1="17.3387" x2="12.5848" y2="90.5201" gradientUnits="userSpaceOnUse">
<stop stop-color="#FCDF47"/>
<stop offset="0.525095" stop-color="#14B7A5"/>
<stop offset="1" stop-color="#8A5CF5"/>
</linearGradient>
<linearGradient id="paint22_linear_15_652" x1="2.77664" y1="17.3387" x2="12.5848" y2="90.5201" gradientUnits="userSpaceOnUse">
<stop stop-color="#FCDF47"/>
<stop offset="0.525095" stop-color="#14B7A5"/>
<stop offset="1" stop-color="#8A5CF5"/>
</linearGradient>
<linearGradient id="paint23_linear_15_652" x1="2.77664" y1="17.3387" x2="12.5848" y2="90.5201" gradientUnits="userSpaceOnUse">
<stop stop-color="#FCDF47"/>
<stop offset="0.525095" stop-color="#14B7A5"/>
<stop offset="1" stop-color="#8A5CF5"/>
</linearGradient>
<linearGradient id="paint24_linear_15_652" x1="2.77664" y1="17.3387" x2="12.5848" y2="90.5201" gradientUnits="userSpaceOnUse">
<stop stop-color="#FCDF47"/>
<stop offset="0.525095" stop-color="#14B7A5"/>
<stop offset="1" stop-color="#8A5CF5"/>
</linearGradient>
</defs>
</svg>
